<svg width="24" height="28" viewBox="0 0 24 28" fill="none" xmlns="http://www.w3.org/2000/svg">
<path d="M20 19.44C18.9867 19.44 18.08 19.84 17.3867 20.4667L7.88 14.9333C7.94667 14.6267 8 14.32 8 14C8 13.68 7.94667 13.3733 7.88 13.0667L17.28 7.58666C18 8.25333 18.9467 8.66666 20 8.66666C22.2133 8.66666 24 6.88 24 4.66666C24 2.45333 22.2133 0.666664 20 0.666664C17.7867 0.666664 16 2.45333 16 4.66666C16 4.98666 16.0533 5.29333 16.12 5.6L6.72 11.08C6 10.4133 5.05333 10 4 10C1.78667 10 0 11.7867 0 14C0 16.2133 1.78667 18 4 18C5.05333 18 6 17.5867 6.72 16.92L16.2133 22.4667C16.1467 22.7467 16.1067 23.04 16.1067 23.3333C16.1067 25.48 17.8533 27.2267 20 27.2267C22.1467 27.2267 23.8933 25.48 23.8933 23.3333C23.8933 21.1867 22.1467 19.44 20 19.44ZM20 3.33333C20.7333 3.33333 21.3333 3.93333 21.3333 4.66666C21.3333 5.4 20.7333 6 20 6C19.2667 6 18.6667 5.4 18.6667 4.66666C18.6667 3.93333 19.2667 3.33333 20 3.33333ZM4 15.3333C3.26667 15.3333 2.66667 14.7333 2.66667 14C2.66667 13.2667 3.26667 12.6667 4 12.6667C4.73333 12.6667 5.33333 13.2667 5.33333 14C5.33333 14.7333 4.73333 15.3333 4 15.3333ZM20 24.6933C19.2667 24.6933 18.6667 24.0933 18.6667 23.36C18.6667 22.6267 19.2667 22.0267 20 22.0267C20.7333 22.0267 21.3333 22.6267 21.3333 23.36C21.3333 24.0933 20.7333 24.6933 20 24.6933Z" fill="#797979"/>
</svg>
