<svg width="28" height="22" viewBox="0 0 28 22" fill="none" xmlns="http://www.w3.org/2000/svg">
<path d="M23.3334 0.333496H4.66675C3.60588 0.333496 2.58847 0.754924 1.83832 1.50507C1.08818 2.25521 0.666748 3.27263 0.666748 4.3335V17.6668C0.666748 18.7277 1.08818 19.7451 1.83832 20.4953C2.58847 21.2454 3.60588 21.6668 4.66675 21.6668H23.3334C24.3943 21.6668 25.4117 21.2454 26.1618 20.4953C26.912 19.7451 27.3334 18.7277 27.3334 17.6668V4.3335C27.3334 3.27263 26.912 2.25521 26.1618 1.50507C25.4117 0.754924 24.3943 0.333496 23.3334 0.333496V0.333496ZM22.7867 3.00016L14.9467 10.8402C14.8228 10.9651 14.6753 11.0643 14.5129 11.132C14.3504 11.1997 14.1761 11.2346 14.0001 11.2346C13.8241 11.2346 13.6498 11.1997 13.4873 11.132C13.3248 11.0643 13.1774 10.9651 13.0534 10.8402L5.21341 3.00016H22.7867ZM24.6667 17.6668C24.6667 18.0205 24.5263 18.3596 24.2762 18.6096C24.0262 18.8597 23.687 19.0002 23.3334 19.0002H4.66675C4.31313 19.0002 3.97399 18.8597 3.72394 18.6096C3.47389 18.3596 3.33341 18.0205 3.33341 17.6668V4.88016L11.1734 12.7202C11.9234 13.4692 12.9401 13.89 14.0001 13.89C15.0601 13.89 16.0767 13.4692 16.8267 12.7202L24.6667 4.88016V17.6668Z" fill="white"/>
</svg>
