<svg width="21" height="31" viewBox="0 0 21 31" fill="none" xmlns="http://www.w3.org/2000/svg">
<path d="M19.8912 11.98C19.7651 11.7934 19.5951 11.6406 19.3961 11.5351C19.1971 11.4297 18.9752 11.3747 18.75 11.375H14.625V8.625H17.65C18.0147 8.625 18.3644 8.48013 18.6223 8.22227C18.8801 7.96441 19.025 7.61467 19.025 7.25V1.75C19.025 1.38533 18.8801 1.03559 18.6223 0.777728C18.3644 0.519866 18.0147 0.375 17.65 0.375H13.25C11.1349 0.375 9.10643 1.21522 7.61082 2.71082C6.11522 4.20643 5.275 6.2349 5.275 8.35V11.375H2.25C1.88533 11.375 1.53559 11.5199 1.27773 11.7777C1.01987 12.0356 0.875 12.3853 0.875 12.75V18.25C0.875 18.6147 1.01987 18.9644 1.27773 19.2223C1.53559 19.4801 1.88533 19.625 2.25 19.625H5.275V29.25C5.275 29.6147 5.41987 29.9644 5.67773 30.2223C5.93559 30.4801 6.28533 30.625 6.65 30.625H13.25C13.6147 30.625 13.9644 30.4801 14.2223 30.2223C14.4801 29.9644 14.625 29.6147 14.625 29.25V19.625H16.55C16.8254 19.6253 17.0945 19.5428 17.3225 19.3884C17.5505 19.2339 17.7269 19.0146 17.8287 18.7587L20.0287 13.2587C20.1118 13.0505 20.1427 12.8252 20.1187 12.6023C20.0948 12.3794 20.0167 12.1658 19.8912 11.98ZM15.615 16.875H13.25C12.8853 16.875 12.5356 17.0199 12.2777 17.2777C12.0199 17.5356 11.875 17.8853 11.875 18.25V27.875H8.025V18.25C8.025 17.8853 7.88013 17.5356 7.62227 17.2777C7.36441 17.0199 7.01467 16.875 6.65 16.875H3.625V14.125H6.65C7.01467 14.125 7.36441 13.9801 7.62227 13.7223C7.88013 13.4644 8.025 13.1147 8.025 12.75V8.35C8.02863 6.96536 8.58028 5.63847 9.55938 4.65938C10.5385 3.68028 11.8654 3.12863 13.25 3.125H16.275V5.875H15.175C14.7094 5.80718 14.2349 5.83564 13.7808 5.95863C13.3267 6.08161 12.9027 6.29651 12.535 6.59C12.3119 6.82361 12.1383 7.09999 12.0249 7.40247C11.9115 7.70495 11.8605 8.02727 11.875 8.35V12.75C11.875 13.1147 12.0199 13.4644 12.2777 13.7223C12.5356 13.9801 12.8853 14.125 13.25 14.125H16.715L15.615 16.875Z" fill="black"/>
</svg>
