<svg width="18" height="18" viewBox="0 0 18 18" fill="none" xmlns="http://www.w3.org/2000/svg">
<path d="M7.627 10.373C8.02624 10.7528 8.02624 11.376 7.627 11.7557C7.24723 12.1355 6.62402 12.1355 6.24425 11.7557C4.34542 9.85691 4.34542 6.77008 6.24425 4.87125L9.69137 1.42413C11.5902 -0.474709 14.677 -0.474709 16.5759 1.42413C18.4747 3.32296 18.4747 6.40979 16.5759 8.30863L15.125 9.75953C15.1347 8.96105 15.0081 8.16256 14.7355 7.40303L15.1931 6.93562C16.3422 5.79632 16.3422 3.94617 15.1931 2.80687C14.0538 1.65783 12.2037 1.65783 11.0644 2.80687L7.627 6.24425C6.47796 7.38355 6.47796 9.2337 7.627 10.373ZM10.373 6.24425C10.7528 5.86448 11.376 5.86448 11.7557 6.24425C13.6546 8.14309 13.6546 11.2299 11.7557 13.1288L8.30863 16.5759C6.40979 18.4747 3.32296 18.4747 1.42413 16.5759C-0.474709 14.677 -0.474709 11.5902 1.42413 9.69137L2.87503 8.24047C2.8653 9.03895 2.99189 9.83743 3.26454 10.6067L2.80687 11.0644C1.65783 12.2037 1.65783 14.0538 2.80687 15.1931C3.94617 16.3422 5.79632 16.3422 6.93562 15.1931L10.373 11.7557C11.522 10.6164 11.522 8.7663 10.373 7.627C9.97376 7.24723 9.97376 6.62402 10.373 6.24425Z" fill="#E7E7E7"/>
</svg>
