<svg width="17" height="16" viewBox="0 0 17 16" fill="none" xmlns="http://www.w3.org/2000/svg">
<path fill-rule="evenodd" clip-rule="evenodd" d="M3.77901 9.6909C3.81281 9.70379 3.84756 9.71313 3.88283 9.7188C4.10535 10.3187 4.32662 10.9192 4.54664 11.5204C4.94226 12.602 5.34102 13.7161 5.42832 14.0365C5.53764 14.4306 5.65247 14.6988 5.77831 14.8824C5.8436 14.9759 5.91831 15.0587 6.0064 15.1217C6.05229 15.1546 6.10139 15.1812 6.15269 15.2009C6.40437 15.3089 6.63404 15.2639 6.77797 15.209C6.86243 15.176 6.9428 15.1307 7.01706 15.074L7.021 15.0722L9.24367 13.4866L11.8116 15.7382C11.8494 15.7714 11.8903 15.7993 11.9343 15.8218C12.2426 15.9748 12.5415 16.0288 12.8231 15.9856C13.1031 15.9406 13.3256 15.8065 13.4916 15.6545C13.6822 15.4787 13.8341 15.2544 13.9352 14.9993L13.9423 14.9795L13.9446 14.9723L13.9462 14.9687V14.9669L13.947 14.966C13.9607 14.9273 13.9712 14.8873 13.9784 14.8464L16.3222 1.32554C16.3296 1.28226 16.3333 1.23826 16.3333 1.19416C16.3333 0.798209 16.2027 0.421156 15.8967 0.193485C15.634 -0.0017911 15.3422 -0.0107901 15.1574 0.00540789C14.9592 0.0234057 14.7752 0.0791987 14.6517 0.124193C14.5826 0.149259 14.5144 0.177479 14.4472 0.208783L14.4386 0.213282L1.29286 6.11295L1.29129 6.11385C1.24681 6.13257 1.20299 6.15328 1.15994 6.17594C1.0557 6.22956 0.955702 6.29339 0.861068 6.36672C0.682531 6.5062 0.271187 6.88955 0.341186 7.52307C0.396242 8.02701 0.698261 8.33747 0.88309 8.48685C0.983763 8.56874 1.07972 8.62724 1.1505 8.66593C1.18196 8.68393 1.2496 8.71453 1.2787 8.72892L1.28657 8.73162L3.77901 9.6909ZM14.8987 1.45513H14.8971C14.8903 1.45857 14.8835 1.46187 14.8766 1.46503L1.71522 7.37279C1.70844 7.37592 1.70163 7.37892 1.69477 7.38179L1.6869 7.38449C1.66286 7.3953 1.63924 7.40731 1.61612 7.42049C1.63801 7.43483 1.66059 7.44775 1.68376 7.45918L4.15496 8.41126C4.19912 8.42829 4.24137 8.45125 4.2808 8.47965L12.4424 3.01283L12.4503 3.00833C12.482 2.98629 12.5145 2.96587 12.5478 2.94714C12.6044 2.91385 12.6949 2.86525 12.7971 2.82926C12.8679 2.80406 13.0779 2.73297 13.3044 2.81666C13.4246 2.85999 13.5316 2.9411 13.6134 3.05074C13.6952 3.16037 13.7484 3.29411 13.7669 3.43668C13.7962 3.56154 13.797 3.69291 13.7692 3.81823C13.7142 4.0657 13.5632 4.25828 13.4247 4.40586C13.3068 4.53185 11.777 6.22004 10.2677 7.88663L8.21256 10.1543L7.84683 10.5593L12.4652 14.6106C12.5275 14.6405 12.5952 14.6529 12.6626 14.6466C12.6966 14.6413 12.7285 14.6251 12.7546 14.5998C12.7865 14.569 12.8139 14.5325 12.8356 14.4918L12.8372 14.4909L15.1102 1.37684C15.0386 1.39654 14.9684 1.42241 14.9002 1.45423L14.8987 1.45513ZM8.24402 12.6083L7.32223 11.8002L7.09886 13.4245L8.24402 12.6083ZM6.47673 10.1966L7.39302 9.18427L9.44816 6.91475L10.2134 6.07065L5.0854 9.50553L5.11293 9.57932C5.43635 10.4535 5.7562 11.3294 6.07247 12.207L6.29505 10.5872C6.31519 10.437 6.37924 10.2999 6.47673 10.1966Z" fill="white"/>
</svg>
